<?xml version="1.0" encoding="UTF-8"?>
<svg xmlns="http://www.w3.org/2000/svg" width="1200" height="630" viewBox="0 0 1200 630" role="img" aria-labelledby="ogTitle">
    <title id="ogTitle">LSCSS — Layered Semantic CSS</title>
    <defs>
        <linearGradient id="bg" x1="0" y1="0" x2="1" y2="1">
            <stop offset="0%" stop-color="hsl(222 35% 12%)"/>
            <stop offset="100%" stop-color="hsl(222 47% 9%)"/>
        </linearGradient>
    </defs>
    <rect width="1200" height="630" fill="url(#bg)"/>
    <rect
        x="80"
        y="291.01"
        width="83.74"
        height="6"
        rx="3"
        fill="hsl(322 100% 66%)"
    />
    <path fill="hsl(222 18% 96%)" stroke="hsl(222 18% 96%)" stroke-width="4" stroke-linejoin="round" paint-order="stroke fill" d="M86.19 280L86.19 229.6L90.8 229.6L90.8 275.82L117.3 275.82L117.3 280ZM142.06 281.01Q136.66 281.01 132.42 279.1Q128.17 277.19 125.72 273.27Q123.27 269.34 123.27 263.3L123.27 261.93L127.88 261.93L127.88 263.3Q127.88 270.28 131.88 273.63Q135.87 276.98 142.06 276.98Q148.33 276.98 151.71 274.06Q155.1 271.14 155.1 266.61Q155.1 263.58 153.62 261.75Q152.14 259.91 149.52 258.8Q146.89 257.68 143.43 256.82L138.82 255.66Q134.72 254.58 131.48 252.96Q128.24 251.34 126.37 248.72Q124.5 246.09 124.5 241.98Q124.5 237.88 126.62 234.86Q128.74 231.83 132.49 230.21Q136.23 228.59 141.2 228.59Q146.17 228.59 150.16 230.32Q154.16 232.05 156.5 235.4Q158.84 238.74 158.84 243.78L158.84 247.17L154.23 247.17L154.23 243.78Q154.23 239.82 152.5 237.38Q150.78 234.93 147.82 233.78Q144.87 232.62 141.2 232.62Q135.94 232.62 132.52 235.04Q129.1 237.45 129.1 241.98Q129.1 245.01 130.51 246.81Q131.91 248.61 134.47 249.69Q137.02 250.77 140.48 251.63L145.09 252.78Q149.05 253.72 152.36 255.27Q155.67 256.82 157.69 259.52Q159.7 262.22 159.7 266.61Q159.7 271 157.51 274.24Q155.31 277.48 151.35 279.24Q147.39 281.01 142.06 281.01Z"/>
    <path fill="hsl(222 18% 96%)" stroke="hsl(222 18% 96%)" stroke-width="4" stroke-linejoin="round" paint-order="stroke fill" d="M187.78 281.01Q178.93 281.01 173.64 275.79Q168.34 270.57 168.34 260.49L168.34 249.11Q168.34 239.03 173.64 233.81Q178.93 228.59 187.78 228.59Q196.57 228.59 201.21 233.52Q205.86 238.46 205.86 246.95L205.86 247.31L201.25 247.31L201.25 246.81Q201.25 240.62 197.97 236.69Q194.7 232.77 187.78 232.77Q180.8 232.77 176.88 237.02Q172.95 241.26 172.95 248.97L172.95 260.63Q172.95 268.34 176.88 272.58Q180.8 276.83 187.78 276.83Q194.7 276.83 197.97 272.91Q201.25 268.98 201.25 262.79L201.25 261.71L205.86 261.71L205.86 262.65Q205.86 271.14 201.21 276.08Q196.57 281.01 187.78 281.01ZM232.57 281.01Q227.17 281.01 222.92 279.1Q218.67 277.19 216.22 273.27Q213.78 269.34 213.78 263.3L213.78 261.93L218.38 261.93L218.38 263.3Q218.38 270.28 222.38 273.63Q226.38 276.98 232.57 276.98Q238.83 276.98 242.22 274.06Q245.6 271.14 245.6 266.61Q245.6 263.58 244.12 261.75Q242.65 259.91 240.02 258.8Q237.39 257.68 233.94 256.82L229.33 255.66Q225.22 254.58 221.98 252.96Q218.74 251.34 216.87 248.72Q215 246.09 215 241.98Q215 237.88 217.12 234.86Q219.25 231.83 222.99 230.21Q226.74 228.59 231.7 228.59Q236.67 228.59 240.67 230.32Q244.66 232.05 247 235.4Q249.34 238.74 249.34 243.78L249.34 247.17L244.74 247.17L244.74 243.78Q244.74 239.82 243.01 237.38Q241.28 234.93 238.33 233.78Q235.38 232.62 231.7 232.62Q226.45 232.62 223.03 235.04Q219.61 237.45 219.61 241.98Q219.61 245.01 221.01 246.81Q222.42 248.61 224.97 249.69Q227.53 250.77 230.98 251.63L235.59 252.78Q239.55 253.72 242.86 255.27Q246.18 256.82 248.19 259.52Q250.21 262.22 250.21 266.61Q250.21 271 248.01 274.24Q245.82 277.48 241.86 279.24Q237.9 281.01 232.57 281.01ZM276.92 281.01Q271.52 281.01 267.27 279.1Q263.02 277.19 260.58 273.27Q258.13 269.34 258.13 263.3L258.13 261.93L262.74 261.93L262.74 263.3Q262.74 270.28 266.73 273.63Q270.73 276.98 276.92 276.98Q283.18 276.98 286.57 274.06Q289.95 271.14 289.95 266.61Q289.95 263.58 288.48 261.75Q287 259.91 284.37 258.8Q281.74 257.68 278.29 256.82L273.68 255.66Q269.58 254.58 266.34 252.96Q263.1 251.34 261.22 248.72Q259.35 246.09 259.35 241.98Q259.35 237.88 261.48 234.86Q263.6 231.83 267.34 230.21Q271.09 228.59 276.06 228.59Q281.02 228.59 285.02 230.32Q289.02 232.05 291.36 235.4Q293.7 238.74 293.7 243.78L293.7 247.17L289.09 247.17L289.09 243.78Q289.09 239.82 287.36 237.38Q285.63 234.93 282.68 233.78Q279.73 232.62 276.06 232.62Q270.8 232.62 267.38 235.04Q263.96 237.45 263.96 241.98Q263.96 245.01 265.36 246.81Q266.77 248.61 269.32 249.69Q271.88 250.77 275.34 251.63L279.94 252.78Q283.9 253.72 287.22 255.27Q290.53 256.82 292.54 259.52Q294.56 262.22 294.56 266.61Q294.56 271 292.36 274.24Q290.17 277.48 286.21 279.24Q282.25 281.01 276.92 281.01Z"/>
    <path fill="hsl(222 10% 68%)" stroke="hsl(222 10% 68%)" stroke-width="1.4" stroke-linejoin="round" paint-order="stroke fill" d="M82.75 360L82.75 337.6L84.8 337.6L84.8 358.14L96.58 358.14L96.58 360ZM105.09 360.45Q103.46 360.45 102.13 359.89Q100.8 359.33 100.03 358.24Q99.26 357.15 99.26 355.62Q99.26 354.05 100.03 353.02Q100.8 352 102.11 351.49Q103.42 350.98 105.02 350.98L110.72 350.98L110.72 349.73Q110.72 347.84 109.63 346.78Q108.54 345.73 106.46 345.73Q104.42 345.73 103.22 346.74Q102.02 347.74 101.6 349.44L99.74 348.9Q100.13 347.52 100.96 346.42Q101.79 345.31 103.17 344.66Q104.54 344 106.46 344Q109.41 344 111.02 345.54Q112.64 347.07 112.64 349.82L112.64 357.38Q112.64 358.34 113.54 358.34L115.04 358.34L115.04 360L112.99 360Q112 360 111.42 359.41Q110.85 358.82 110.85 357.79L110.85 357.57L110.53 357.57Q110.11 358.27 109.46 358.94Q108.8 359.62 107.74 360.03Q106.69 360.45 105.09 360.45ZM105.22 358.72Q107.68 358.72 109.2 357.23Q110.72 355.74 110.72 353.02L110.72 352.64L105.06 352.64Q103.39 352.64 102.29 353.36Q101.18 354.08 101.18 355.58Q101.18 357.09 102.32 357.9Q103.46 358.72 105.22 358.72ZM120.26 366.4L120.26 364.67L129.34 364.67Q130.3 364.67 130.3 363.71L130.3 357.31L129.92 357.31Q129.54 358.08 128.85 358.77Q128.16 359.46 127.06 359.89Q125.95 360.32 124.29 360.32Q122.62 360.32 121.2 359.62Q119.78 358.91 118.93 357.5Q118.08 356.1 118.08 353.95L118.08 344.45L120 344.45L120 353.82Q120 356.35 121.28 357.47Q122.56 358.59 124.7 358.59Q127.1 358.59 128.7 357.02Q130.3 355.46 130.3 352.26L130.3 344.45L132.22 344.45L132.22 363.97Q132.22 365.12 131.6 365.76Q130.98 366.4 129.73 366.4ZM145.02 360.45Q142.62 360.45 140.85 359.44Q139.07 358.43 138.08 356.61Q137.09 354.78 137.09 352.42L137.09 352.03Q137.09 349.63 138.08 347.82Q139.07 346.02 140.82 345.01Q142.56 344 144.8 344Q146.98 344 148.66 344.91Q150.34 345.82 151.3 347.54Q152.26 349.25 152.26 351.62L152.26 352.64L139.01 352.64Q139.1 355.55 140.78 357.14Q142.46 358.72 145.02 358.72Q147.2 358.72 148.4 357.73Q149.6 356.74 150.24 355.3L151.97 356.06Q151.49 357.12 150.64 358.13Q149.79 359.14 148.45 359.79Q147.1 360.45 145.02 360.45ZM139.04 350.98L150.3 350.98Q150.18 348.45 148.67 347.09Q147.17 345.73 144.8 345.73Q142.46 345.73 140.93 347.09Q139.39 348.45 139.04 350.98ZM156.99 360L156.99 344.45L158.85 344.45L158.85 346.4L159.23 346.4Q159.68 345.34 160.56 344.86Q161.44 344.38 163.01 344.38L164.83 344.38L164.83 346.18L162.78 346.18Q161.02 346.18 159.97 347.17Q158.91 348.16 158.91 350.27L158.91 360ZM175.39 360.45Q172.99 360.45 171.22 359.44Q169.44 358.43 168.45 356.61Q167.46 354.78 167.46 352.42L167.46 352.03Q167.46 349.63 168.45 347.82Q169.44 346.02 171.18 345.01Q172.93 344 175.17 344Q177.34 344 179.02 344.91Q180.7 345.82 181.66 347.54Q182.62 349.25 182.62 351.62L182.62 352.64L169.38 352.64Q169.47 355.55 171.15 357.14Q172.83 358.72 175.39 358.72Q177.57 358.72 178.77 357.73Q179.97 356.74 180.61 355.3L182.34 356.06Q181.86 357.12 181.01 358.13Q180.16 359.14 178.82 359.79Q177.47 360.45 175.39 360.45ZM169.41 350.98L180.67 350.98Q180.54 348.45 179.04 347.09Q177.54 345.73 175.17 345.73Q172.83 345.73 171.3 347.09Q169.76 348.45 169.41 350.98ZM194.08 360.45Q192 360.45 190.3 359.47Q188.61 358.5 187.6 356.69Q186.59 354.88 186.59 352.42L186.59 352.03Q186.59 349.57 187.58 347.76Q188.58 345.95 190.29 344.98Q192 344 194.08 344Q195.81 344 196.99 344.46Q198.18 344.93 198.93 345.65Q199.68 346.37 200.1 347.17L200.48 347.17L200.48 337.6L202.4 337.6L202.4 360L200.54 360L200.54 357.15L200.16 357.15Q199.49 358.43 198.06 359.44Q196.64 360.45 194.08 360.45ZM194.53 358.72Q197.18 358.72 198.83 357.02Q200.48 355.33 200.48 352.35L200.48 352.1Q200.48 349.12 198.83 347.42Q197.18 345.73 194.53 345.73Q191.9 345.73 190.24 347.42Q188.58 349.12 188.58 352.1L188.58 352.35Q188.58 355.33 190.24 357.02Q191.9 358.72 194.53 358.72ZM223.52 360.45Q221.12 360.45 219.23 359.6Q217.34 358.75 216.26 357.01Q215.17 355.26 215.17 352.58L215.17 351.97L217.22 351.97L217.22 352.58Q217.22 355.68 218.99 357.17Q220.77 358.66 223.52 358.66Q226.3 358.66 227.81 357.36Q229.31 356.06 229.31 354.05Q229.31 352.7 228.66 351.89Q228 351.07 226.83 350.58Q225.66 350.08 224.13 349.7L222.08 349.18Q220.26 348.7 218.82 347.98Q217.38 347.26 216.54 346.1Q215.71 344.93 215.71 343.1Q215.71 341.28 216.66 339.94Q217.6 338.59 219.26 337.87Q220.93 337.15 223.14 337.15Q225.34 337.15 227.12 337.92Q228.9 338.69 229.94 340.18Q230.98 341.66 230.98 343.9L230.98 345.41L228.93 345.41L228.93 343.9Q228.93 342.14 228.16 341.06Q227.39 339.97 226.08 339.46Q224.77 338.94 223.14 338.94Q220.8 338.94 219.28 340.02Q217.76 341.09 217.76 343.1Q217.76 344.45 218.38 345.25Q219.01 346.05 220.14 346.53Q221.28 347.01 222.82 347.39L224.86 347.9Q226.62 348.32 228.1 349.01Q229.57 349.7 230.46 350.9Q231.36 352.1 231.36 354.05Q231.36 356 230.38 357.44Q229.41 358.88 227.65 359.66Q225.89 360.45 223.52 360.45ZM243.14 360.45Q240.74 360.45 238.96 359.44Q237.18 358.43 236.19 356.61Q235.2 354.78 235.2 352.42L235.2 352.03Q235.2 349.63 236.19 347.82Q237.18 346.02 238.93 345.01Q240.67 344 242.91 344Q245.09 344 246.77 344.91Q248.45 345.82 249.41 347.54Q250.37 349.25 250.37 351.62L250.37 352.64L237.12 352.64Q237.22 355.55 238.9 357.14Q240.58 358.72 243.14 358.72Q245.31 358.72 246.51 357.73Q247.71 356.74 248.35 355.3L250.08 356.06Q249.6 357.12 248.75 358.13Q247.9 359.14 246.56 359.79Q245.22 360.45 243.14 360.45ZM237.15 350.98L248.42 350.98Q248.29 348.45 246.78 347.09Q245.28 345.73 242.91 345.73Q240.58 345.73 239.04 347.09Q237.5 348.45 237.15 350.98ZM255.1 360L255.1 344.45L256.96 344.45L256.96 346.5L257.34 346.5Q257.82 345.63 258.88 344.88Q259.94 344.13 261.89 344.13Q263.78 344.13 264.94 344.99Q266.11 345.86 266.62 347.07L267.01 347.07Q267.55 345.86 268.7 344.99Q269.86 344.13 271.94 344.13Q273.54 344.13 274.72 344.78Q275.9 345.44 276.58 346.61Q277.25 347.78 277.25 349.34L277.25 360L275.33 360L275.33 349.54Q275.33 347.87 274.32 346.86Q273.31 345.86 271.49 345.86Q269.63 345.86 268.38 347.06Q267.14 348.26 267.14 350.56L267.14 360L265.22 360L265.22 349.54Q265.22 347.87 264.21 346.86Q263.2 345.86 261.38 345.86Q259.52 345.86 258.27 347.06Q257.02 348.26 257.02 350.56L257.02 360ZM287.46 360.45Q285.82 360.45 284.5 359.89Q283.17 359.33 282.4 358.24Q281.63 357.15 281.63 355.62Q281.63 354.05 282.4 353.02Q283.17 352 284.48 351.49Q285.79 350.98 287.39 350.98L293.09 350.98L293.09 349.73Q293.09 347.84 292 346.78Q290.91 345.73 288.83 345.73Q286.78 345.73 285.58 346.74Q284.38 347.74 283.97 349.44L282.11 348.9Q282.5 347.52 283.33 346.42Q284.16 345.31 285.54 344.66Q286.91 344 288.83 344Q291.78 344 293.39 345.54Q295.01 347.07 295.01 349.82L295.01 357.38Q295.01 358.34 295.9 358.34L297.41 358.34L297.41 360L295.36 360Q294.37 360 293.79 359.41Q293.22 358.82 293.22 357.79L293.22 357.57L292.9 357.57Q292.48 358.27 291.82 358.94Q291.17 359.62 290.11 360.03Q289.06 360.45 287.46 360.45ZM287.58 358.72Q290.05 358.72 291.57 357.23Q293.09 355.74 293.09 353.02L293.09 352.64L287.42 352.64Q285.76 352.64 284.66 353.36Q283.55 354.08 283.55 355.58Q283.55 357.09 284.69 357.9Q285.82 358.72 287.58 358.72ZM301.06 360L301.06 344.45L302.91 344.45L302.91 347.33L303.3 347.33Q303.87 346.08 305.18 345.1Q306.5 344.13 308.99 344.13Q310.69 344.13 312.1 344.83Q313.5 345.54 314.35 346.96Q315.2 348.38 315.2 350.53L315.2 360L313.28 360L313.28 350.66Q313.28 348.1 312 346.98Q310.72 345.86 308.58 345.86Q306.18 345.86 304.58 347.44Q302.98 349.02 302.98 352.22L302.98 360ZM325.82 360Q324.58 360 323.95 359.36Q323.33 358.72 323.33 357.57L323.33 346.18L318.34 346.18L318.34 344.45L323.33 344.45L323.33 338.62L325.25 338.62L325.25 344.45L330.69 344.45L330.69 346.18L325.25 346.18L325.25 357.31Q325.25 358.27 326.21 358.27L329.86 358.27L329.86 360ZM334.98 360L334.98 344.45L336.9 344.45L336.9 360ZM335.94 341.76Q335.23 341.76 334.75 341.28Q334.27 340.8 334.27 340.1Q334.27 339.36 334.75 338.9Q335.23 338.43 335.94 338.43Q336.67 338.43 337.14 338.9Q337.6 339.36 337.6 340.1Q337.6 340.8 337.14 341.28Q336.67 341.76 335.94 341.76ZM349.63 360.45Q347.36 360.45 345.58 359.47Q343.81 358.5 342.78 356.67Q341.76 354.85 341.76 352.38L341.76 352.06Q341.76 349.57 342.78 347.76Q343.81 345.95 345.58 344.98Q347.36 344 349.63 344Q351.87 344 353.42 344.85Q354.98 345.7 355.86 347.06Q356.74 348.42 356.96 349.92L355.07 350.3Q354.91 349.06 354.27 348.02Q353.63 346.98 352.48 346.35Q351.33 345.73 349.63 345.73Q347.94 345.73 346.59 346.51Q345.25 347.3 344.46 348.72Q343.68 350.14 343.68 352.1L343.68 352.35Q343.68 354.3 344.46 355.73Q345.25 357.15 346.59 357.94Q347.94 358.72 349.63 358.72Q352.19 358.72 353.54 357.39Q354.88 356.06 355.2 354.14L357.09 354.53Q356.8 356.03 355.89 357.39Q354.98 358.75 353.42 359.6Q351.87 360.45 349.63 360.45ZM377.95 360.45Q374.02 360.45 371.66 358.13Q369.31 355.81 369.31 351.33L369.31 346.27Q369.31 341.79 371.66 339.47Q374.02 337.15 377.95 337.15Q381.86 337.15 383.92 339.34Q385.98 341.54 385.98 345.31L385.98 345.47L383.94 345.47L383.94 345.25Q383.94 342.5 382.48 340.75Q381.02 339.01 377.95 339.01Q374.85 339.01 373.1 340.9Q371.36 342.78 371.36 346.21L371.36 351.39Q371.36 354.82 373.1 356.7Q374.85 358.59 377.95 358.59Q381.02 358.59 382.48 356.85Q383.94 355.1 383.94 352.35L383.94 351.87L385.98 351.87L385.98 352.29Q385.98 356.06 383.92 358.26Q381.86 360.45 377.95 360.45ZM397.86 360.45Q395.46 360.45 393.57 359.6Q391.68 358.75 390.59 357.01Q389.5 355.26 389.5 352.58L389.5 351.97L391.55 351.97L391.55 352.58Q391.55 355.68 393.33 357.17Q395.1 358.66 397.86 358.66Q400.64 358.66 402.14 357.36Q403.65 356.06 403.65 354.05Q403.65 352.7 402.99 351.89Q402.34 351.07 401.17 350.58Q400 350.08 398.46 349.7L396.42 349.18Q394.59 348.7 393.15 347.98Q391.71 347.26 390.88 346.1Q390.05 344.93 390.05 343.1Q390.05 341.28 390.99 339.94Q391.94 338.59 393.6 337.87Q395.26 337.15 397.47 337.15Q399.68 337.15 401.46 337.92Q403.23 338.69 404.27 340.18Q405.31 341.66 405.31 343.9L405.31 345.41L403.26 345.41L403.26 343.9Q403.26 342.14 402.5 341.06Q401.73 339.97 400.42 339.46Q399.1 338.94 397.47 338.94Q395.14 338.94 393.62 340.02Q392.1 341.09 392.1 343.1Q392.1 344.45 392.72 345.25Q393.34 346.05 394.48 346.53Q395.62 347.01 397.15 347.39L399.2 347.9Q400.96 348.32 402.43 349.01Q403.9 349.7 404.8 350.9Q405.7 352.1 405.7 354.05Q405.7 356 404.72 357.44Q403.74 358.88 401.98 359.66Q400.22 360.45 397.86 360.45ZM417.57 360.45Q415.17 360.45 413.28 359.6Q411.39 358.75 410.3 357.01Q409.22 355.26 409.22 352.58L409.22 351.97L411.26 351.97L411.26 352.58Q411.26 355.68 413.04 357.17Q414.82 358.66 417.57 358.66Q420.35 358.66 421.86 357.36Q423.36 356.06 423.36 354.05Q423.36 352.7 422.7 351.89Q422.05 351.07 420.88 350.58Q419.71 350.08 418.18 349.7L416.13 349.18Q414.3 348.7 412.86 347.98Q411.42 347.26 410.59 346.1Q409.76 344.93 409.76 343.1Q409.76 341.28 410.7 339.94Q411.65 338.59 413.31 337.87Q414.98 337.15 417.18 337.15Q419.39 337.15 421.17 337.92Q422.94 338.69 423.98 340.18Q425.02 341.66 425.02 343.9L425.02 345.41L422.98 345.41L422.98 343.9Q422.98 342.14 422.21 341.06Q421.44 339.97 420.13 339.46Q418.82 338.94 417.18 338.94Q414.85 338.94 413.33 340.02Q411.81 341.09 411.81 343.1Q411.81 344.45 412.43 345.25Q413.06 346.05 414.19 346.53Q415.33 347.01 416.86 347.39L418.91 347.9Q420.67 348.32 422.14 349.01Q423.62 349.7 424.51 350.9Q425.41 352.1 425.41 354.05Q425.41 356 424.43 357.44Q423.46 358.88 421.7 359.66Q419.94 360.45 417.57 360.45Z"/>
    <path fill="hsl(222 10% 68%)" stroke="hsl(222 10% 68%)" stroke-width="1" stroke-linejoin="round" paint-order="stroke fill" d="M87.35 420.31Q84.64 420.31 83.03 418.71Q81.41 417.12 81.41 414.04L81.41 410.56Q81.41 407.48 83.03 405.89Q84.64 404.29 87.35 404.29Q90.03 404.29 91.45 405.8Q92.87 407.31 92.87 409.9L92.87 410.01L91.46 410.01L91.46 409.86Q91.46 407.97 90.46 406.77Q89.46 405.57 87.35 405.57Q85.21 405.57 84.02 406.87Q82.82 408.16 82.82 410.52L82.82 414.08Q82.82 416.44 84.02 417.73Q85.21 419.03 87.35 419.03Q89.46 419.03 90.46 417.83Q91.46 416.63 91.46 414.74L91.46 414.41L92.87 414.41L92.87 414.7Q92.87 417.29 91.45 418.8Q90.03 420.31 87.35 420.31ZM99.32 420.31Q98.19 420.31 97.28 419.92Q96.37 419.54 95.84 418.79Q95.31 418.04 95.31 416.99Q95.31 415.91 95.84 415.2Q96.37 414.5 97.27 414.15Q98.17 413.8 99.27 413.8L103.19 413.8L103.19 412.94Q103.19 411.64 102.44 410.91Q101.69 410.19 100.26 410.19Q98.85 410.19 98.03 410.88Q97.2 411.57 96.92 412.74L95.64 412.37Q95.91 411.42 96.48 410.66Q97.05 409.9 98 409.45Q98.94 409 100.26 409Q102.29 409 103.4 410.06Q104.51 411.11 104.51 413L104.51 418.2Q104.51 418.86 105.12 418.86L106.16 418.86L106.16 420L104.75 420Q104.07 420 103.67 419.59Q103.28 419.19 103.28 418.48L103.28 418.33L103.06 418.33Q102.77 418.81 102.32 419.27Q101.87 419.74 101.14 420.02Q100.42 420.31 99.32 420.31ZM99.4 419.12Q101.1 419.12 102.14 418.1Q103.19 417.07 103.19 415.2L103.19 414.94L99.29 414.94Q98.15 414.94 97.39 415.44Q96.63 415.93 96.63 416.96Q96.63 418 97.41 418.56Q98.19 419.12 99.4 419.12ZM108.67 420L108.67 404.6L109.99 404.6L109.99 420ZM113.86 420L113.86 409.31L115.13 409.31L115.13 410.72L115.4 410.72Q115.73 410.12 116.45 409.61Q117.18 409.09 118.52 409.09Q119.82 409.09 120.62 409.68Q121.43 410.28 121.78 411.11L122.04 411.11Q122.42 410.28 123.21 409.68Q124 409.09 125.43 409.09Q126.53 409.09 127.34 409.54Q128.16 409.99 128.62 410.79Q129.08 411.6 129.08 412.67L129.08 420L127.76 420L127.76 412.81Q127.76 411.66 127.07 410.97Q126.38 410.28 125.12 410.28Q123.85 410.28 122.99 411.1Q122.13 411.93 122.13 413.51L122.13 420L120.81 420L120.81 412.81Q120.81 411.66 120.12 410.97Q119.42 410.28 118.17 410.28Q116.89 410.28 116.04 411.1Q115.18 411.93 115.18 413.51L115.18 420ZM143.91 420.31Q141.2 420.31 139.59 418.71Q137.97 417.12 137.97 414.04L137.97 410.56Q137.97 407.48 139.59 405.89Q141.2 404.29 143.91 404.29Q146.59 404.29 148.01 405.8Q149.43 407.31 149.43 409.9L149.43 410.01L148.02 410.01L148.02 409.86Q148.02 407.97 147.02 406.77Q146.02 405.57 143.91 405.57Q141.78 405.57 140.58 406.87Q139.38 408.16 139.38 410.52L139.38 414.08Q139.38 416.44 140.58 417.73Q141.78 419.03 143.91 419.03Q146.02 419.03 147.02 417.83Q148.02 416.63 148.02 414.74L148.02 414.41L149.43 414.41L149.43 414.7Q149.43 417.29 148.01 418.8Q146.59 420.31 143.91 420.31ZM157.59 420.31Q155.94 420.31 154.65 419.73Q153.35 419.14 152.6 417.94Q151.85 416.74 151.85 414.9L151.85 414.48L153.26 414.48L153.26 414.9Q153.26 417.03 154.48 418.05Q155.7 419.08 157.59 419.08Q159.51 419.08 160.54 418.19Q161.58 417.29 161.58 415.91Q161.58 414.98 161.13 414.42Q160.67 413.86 159.87 413.52Q159.07 413.18 158.01 412.92L156.6 412.56Q155.35 412.23 154.36 411.74Q153.37 411.24 152.8 410.44Q152.23 409.64 152.23 408.38Q152.23 407.13 152.88 406.21Q153.52 405.28 154.67 404.79Q155.81 404.29 157.33 404.29Q158.85 404.29 160.07 404.82Q161.29 405.35 162.01 406.37Q162.72 407.39 162.72 408.93L162.72 409.97L161.31 409.97L161.31 408.93Q161.31 407.72 160.78 406.98Q160.26 406.23 159.35 405.88Q158.45 405.52 157.33 405.52Q155.72 405.52 154.68 406.26Q153.63 407 153.63 408.38Q153.63 409.31 154.06 409.86Q154.49 410.41 155.27 410.74Q156.05 411.07 157.11 411.33L158.52 411.68Q159.73 411.97 160.74 412.44Q161.75 412.92 162.37 413.74Q162.98 414.57 162.98 415.91Q162.98 417.25 162.31 418.24Q161.64 419.23 160.43 419.77Q159.22 420.31 157.59 420.31ZM171.15 420.31Q169.5 420.31 168.2 419.73Q166.9 419.14 166.15 417.94Q165.4 416.74 165.4 414.9L165.4 414.48L166.81 414.48L166.81 414.9Q166.81 417.03 168.03 418.05Q169.25 419.08 171.15 419.08Q173.06 419.08 174.09 418.19Q175.13 417.29 175.13 415.91Q175.13 414.98 174.68 414.42Q174.23 413.86 173.42 413.52Q172.62 413.18 171.56 412.92L170.16 412.56Q168.9 412.23 167.91 411.74Q166.92 411.24 166.35 410.44Q165.78 409.64 165.78 408.38Q165.78 407.13 166.43 406.21Q167.08 405.28 168.22 404.79Q169.36 404.29 170.88 404.29Q172.4 404.29 173.62 404.82Q174.84 405.35 175.56 406.37Q176.27 407.39 176.27 408.93L176.27 409.97L174.86 409.97L174.86 408.93Q174.86 407.72 174.34 406.98Q173.81 406.23 172.91 405.88Q172 405.52 170.88 405.52Q169.28 405.52 168.23 406.26Q167.19 407 167.19 408.38Q167.19 409.31 167.61 409.86Q168.04 410.41 168.83 410.74Q169.61 411.07 170.66 411.33L172.07 411.68Q173.28 411.97 174.29 412.44Q175.3 412.92 175.92 413.74Q176.54 414.57 176.54 415.91Q176.54 417.25 175.86 418.24Q175.19 419.23 173.98 419.77Q172.77 420.31 171.15 420.31ZM188.66 420.31Q187.54 420.31 186.62 419.92Q185.71 419.54 185.18 418.79Q184.65 418.04 184.65 416.99Q184.65 415.91 185.18 415.2Q185.71 414.5 186.61 414.15Q187.51 413.8 188.61 413.8L192.53 413.8L192.53 412.94Q192.53 411.64 191.78 410.91Q191.03 410.19 189.6 410.19Q188.2 410.19 187.37 410.88Q186.55 411.57 186.26 412.74L184.98 412.37Q185.25 411.42 185.82 410.66Q186.39 409.9 187.34 409.45Q188.28 409 189.6 409Q191.63 409 192.74 410.06Q193.85 411.11 193.85 413L193.85 418.2Q193.85 418.86 194.47 418.86L195.5 418.86L195.5 420L194.09 420Q193.41 420 193.01 419.59Q192.62 419.19 192.62 418.48L192.62 418.33L192.4 418.33Q192.11 418.81 191.66 419.27Q191.21 419.74 190.48 420.02Q189.76 420.31 188.66 420.31ZM188.75 419.12Q190.44 419.12 191.48 418.1Q192.53 417.07 192.53 415.2L192.53 414.94L188.64 414.94Q187.49 414.94 186.73 415.44Q185.97 415.93 185.97 416.96Q185.97 418 186.75 418.56Q187.54 419.12 188.75 419.12ZM198.01 420L198.01 409.31L199.28 409.31L199.28 410.65L199.55 410.65Q199.86 409.92 200.46 409.59Q201.07 409.26 202.14 409.26L203.4 409.26L203.4 410.5L201.99 410.5Q200.78 410.5 200.05 411.18Q199.33 411.86 199.33 413.31L199.33 420ZM210.61 420.31Q209.05 420.31 207.83 419.64Q206.61 418.97 205.91 417.71Q205.2 416.46 205.2 414.76L205.2 414.54Q205.2 412.83 205.91 411.59Q206.61 410.34 207.83 409.67Q209.05 409 210.61 409Q212.15 409 213.22 409.58Q214.29 410.17 214.89 411.1Q215.5 412.04 215.65 413.07L214.35 413.33Q214.24 412.48 213.8 411.76Q213.36 411.05 212.57 410.62Q211.78 410.19 210.61 410.19Q209.45 410.19 208.52 410.73Q207.6 411.27 207.06 412.25Q206.52 413.22 206.52 414.57L206.52 414.74Q206.52 416.08 207.06 417.06Q207.6 418.04 208.52 418.58Q209.45 419.12 210.61 419.12Q212.37 419.12 213.3 418.21Q214.22 417.29 214.44 415.97L215.74 416.24Q215.54 417.27 214.91 418.21Q214.29 419.14 213.22 419.73Q212.15 420.31 210.61 420.31ZM219 420L219 404.6L220.32 404.6L220.32 411.18L220.58 411.18Q220.84 410.65 221.32 410.18Q221.79 409.7 222.55 409.41Q223.31 409.11 224.45 409.11Q225.62 409.11 226.59 409.59Q227.55 410.08 228.14 411.05Q228.72 412.01 228.72 413.49L228.72 420L227.4 420L227.4 413.58Q227.4 411.82 226.52 411.06Q225.64 410.3 224.17 410.3Q222.52 410.3 221.42 411.38Q220.32 412.45 220.32 414.65L220.32 420ZM232.46 420L232.46 409.31L233.78 409.31L233.78 420ZM233.12 407.46Q232.64 407.46 232.31 407.13Q231.98 406.8 231.98 406.32Q231.98 405.81 232.31 405.49Q232.64 405.17 233.12 405.17Q233.63 405.17 233.94 405.49Q234.26 405.81 234.26 406.32Q234.26 406.8 233.94 407.13Q233.63 407.46 233.12 407.46ZM241.52 420Q240.67 420 240.24 419.56Q239.81 419.12 239.81 418.33L239.81 410.5L236.38 410.5L236.38 409.31L239.81 409.31L239.81 405.3L241.13 405.3L241.13 409.31L244.87 409.31L244.87 410.5L241.13 410.5L241.13 418.15Q241.13 418.81 241.79 418.81L244.3 418.81L244.3 420ZM252.35 420.31Q250.7 420.31 249.48 419.62Q248.26 418.92 247.57 417.67Q246.89 416.41 246.89 414.79L246.89 414.52Q246.89 412.87 247.57 411.63Q248.26 410.39 249.45 409.69Q250.65 409 252.19 409Q253.69 409 254.84 409.63Q256 410.25 256.66 411.43Q257.32 412.61 257.32 414.24L257.32 414.94L248.21 414.94Q248.28 416.94 249.43 418.03Q250.59 419.12 252.35 419.12Q253.84 419.12 254.67 418.44Q255.49 417.76 255.93 416.77L257.12 417.29Q256.79 418.02 256.21 418.71Q255.63 419.41 254.7 419.86Q253.78 420.31 252.35 420.31ZM248.23 413.8L255.98 413.8Q255.89 412.06 254.86 411.12Q253.82 410.19 252.19 410.19Q250.59 410.19 249.53 411.12Q248.48 412.06 248.23 413.8ZM265.46 420.31Q263.9 420.31 262.68 419.64Q261.46 418.97 260.75 417.71Q260.05 416.46 260.05 414.76L260.05 414.54Q260.05 412.83 260.75 411.59Q261.46 410.34 262.68 409.67Q263.9 409 265.46 409Q267 409 268.07 409.58Q269.13 410.17 269.74 411.1Q270.34 412.04 270.5 413.07L269.2 413.33Q269.09 412.48 268.65 411.76Q268.21 411.05 267.42 410.62Q266.63 410.19 265.46 410.19Q264.29 410.19 263.37 410.73Q262.45 411.27 261.91 412.25Q261.37 413.22 261.37 414.57L261.37 414.74Q261.37 416.08 261.91 417.06Q262.45 418.04 263.37 418.58Q264.29 419.12 265.46 419.12Q267.22 419.12 268.14 418.21Q269.07 417.29 269.29 415.97L270.59 416.24Q270.39 417.27 269.76 418.21Q269.13 419.14 268.07 419.73Q267 420.31 265.46 420.31ZM277.25 420Q276.39 420 275.96 419.56Q275.54 419.12 275.54 418.33L275.54 410.5L272.1 410.5L272.1 409.31L275.54 409.31L275.54 405.3L276.86 405.3L276.86 409.31L280.6 409.31L280.6 410.5L276.86 410.5L276.86 418.15Q276.86 418.81 277.52 418.81L280.02 418.81L280.02 420ZM287.66 420.22Q286.51 420.22 285.53 419.74Q284.56 419.25 283.97 418.27Q283.39 417.29 283.39 415.82L283.39 409.31L284.71 409.31L284.71 415.73Q284.71 417.47 285.59 418.25Q286.47 419.03 287.94 419.03Q289.59 419.03 290.69 417.94Q291.79 416.85 291.79 414.65L291.79 409.31L293.11 409.31L293.11 420L291.84 420L291.84 418.02L291.57 418.02Q291.18 418.88 290.28 419.55Q289.37 420.22 287.66 420.22ZM296.99 420L296.99 409.31L298.26 409.31L298.26 410.65L298.53 410.65Q298.83 409.92 299.44 409.59Q300.04 409.26 301.12 409.26L302.38 409.26L302.38 410.5L300.97 410.5Q299.76 410.5 299.03 411.18Q298.31 411.86 298.31 413.31L298.31 420ZM309.64 420.31Q307.99 420.31 306.76 419.62Q305.54 418.92 304.86 417.67Q304.18 416.41 304.18 414.79L304.18 414.52Q304.18 412.87 304.86 411.63Q305.54 410.39 306.74 409.69Q307.94 409 309.48 409Q310.98 409 312.13 409.63Q313.29 410.25 313.95 411.43Q314.61 412.61 314.61 414.24L314.61 414.94L305.5 414.94Q305.57 416.94 306.72 418.03Q307.88 419.12 309.64 419.12Q311.13 419.12 311.96 418.44Q312.78 417.76 313.22 416.77L314.41 417.29Q314.08 418.02 313.5 418.71Q312.91 419.41 311.99 419.86Q311.07 420.31 309.64 420.31ZM305.52 413.8L313.27 413.8Q313.18 412.06 312.14 411.12Q311.11 410.19 309.48 410.19Q307.88 410.19 306.82 411.12Q305.76 412.06 305.52 413.8ZM325.78 420L325.78 410.5L322.26 410.5L322.26 409.31L325.78 409.31L325.78 406.27Q325.78 405.48 326.21 405.04Q326.64 404.6 327.5 404.6L330.14 404.6L330.14 405.79L327.76 405.79Q327.1 405.79 327.1 406.45L327.1 409.31L330.71 409.31L330.71 410.5L327.1 410.5L327.1 420ZM337.6 420.31Q335.97 420.31 334.75 419.62Q333.53 418.92 332.86 417.68Q332.19 416.44 332.19 414.79L332.19 414.52Q332.19 412.87 332.86 411.63Q333.53 410.39 334.75 409.69Q335.97 409 337.6 409Q339.23 409 340.45 409.69Q341.67 410.39 342.34 411.63Q343.01 412.87 343.01 414.52L343.01 414.79Q343.01 416.44 342.34 417.68Q341.67 418.92 340.45 419.62Q339.23 420.31 337.6 420.31ZM337.6 419.12Q339.49 419.12 340.59 417.92Q341.69 416.72 341.69 414.74L341.69 414.57Q341.69 412.59 340.59 411.39Q339.49 410.19 337.6 410.19Q335.73 410.19 334.62 411.39Q333.51 412.59 333.51 414.57L333.51 414.74Q333.51 416.72 334.62 417.92Q335.73 419.12 337.6 419.12ZM346.35 420L346.35 409.31L347.63 409.31L347.63 410.65L347.89 410.65Q348.2 409.92 348.81 409.59Q349.41 409.26 350.49 409.26L351.74 409.26L351.74 410.5L350.34 410.5Q349.13 410.5 348.4 411.18Q347.67 411.86 347.67 413.31L347.67 420ZM360.15 420L360.15 409.31L361.42 409.31L361.42 410.65L361.69 410.65Q362 409.92 362.6 409.59Q363.21 409.26 364.28 409.26L365.54 409.26L365.54 410.5L364.13 410.5Q362.92 410.5 362.19 411.18Q361.47 411.86 361.47 413.31L361.47 420ZM372.8 420.31Q371.15 420.31 369.93 419.62Q368.71 418.92 368.02 417.67Q367.34 416.41 367.34 414.79L367.34 414.52Q367.34 412.87 368.02 411.63Q368.71 410.39 369.9 409.69Q371.1 409 372.64 409Q374.14 409 375.29 409.63Q376.45 410.25 377.11 411.43Q377.77 412.61 377.77 414.24L377.77 414.94L368.66 414.94Q368.73 416.94 369.88 418.03Q371.04 419.12 372.8 419.12Q374.29 419.12 375.12 418.44Q375.94 417.76 376.38 416.77L377.57 417.29Q377.24 418.02 376.66 418.71Q376.08 419.41 375.15 419.86Q374.23 420.31 372.8 420.31ZM368.68 413.8L376.43 413.8Q376.34 412.06 375.31 411.12Q374.27 410.19 372.64 410.19Q371.04 410.19 369.98 411.12Q368.93 412.06 368.68 413.8ZM384.3 420.31Q383.18 420.31 382.27 419.92Q381.36 419.54 380.83 418.79Q380.3 418.04 380.3 416.99Q380.3 415.91 380.83 415.2Q381.36 414.5 382.26 414.15Q383.16 413.8 384.26 413.8L388.18 413.8L388.18 412.94Q388.18 411.64 387.43 410.91Q386.68 410.19 385.25 410.19Q383.84 410.19 383.02 410.88Q382.19 411.57 381.91 412.74L380.63 412.37Q380.89 411.42 381.47 410.66Q382.04 409.9 382.98 409.45Q383.93 409 385.25 409Q387.27 409 388.38 410.06Q389.5 411.11 389.5 413L389.5 418.2Q389.5 418.86 390.11 418.86L391.15 418.86L391.15 420L389.74 420Q389.06 420 388.66 419.59Q388.26 419.19 388.26 418.48L388.26 418.33L388.04 418.33Q387.76 418.81 387.31 419.27Q386.86 419.74 386.13 420.02Q385.4 420.31 384.3 420.31ZM384.39 419.12Q386.09 419.12 387.13 418.1Q388.18 417.07 388.18 415.2L388.18 414.94L384.28 414.94Q383.14 414.94 382.38 415.44Q381.62 415.93 381.62 416.96Q381.62 418 382.4 418.56Q383.18 419.12 384.39 419.12ZM393.65 420L393.65 404.6L394.97 404.6L394.97 420ZM408.39 420Q407.54 420 407.11 419.56Q406.68 419.12 406.68 418.33L406.68 410.5L403.25 410.5L403.25 409.31L406.68 409.31L406.68 405.3L408 405.3L408 409.31L411.74 409.31L411.74 410.5L408 410.5L408 418.15Q408 418.81 408.66 418.81L411.17 418.81L411.17 420ZM419.22 420.31Q417.57 420.31 416.35 419.62Q415.13 418.92 414.44 417.67Q413.76 416.41 413.76 414.79L413.76 414.52Q413.76 412.87 414.44 411.63Q415.13 410.39 416.32 409.69Q417.52 409 419.06 409Q420.56 409 421.71 409.63Q422.87 410.25 423.53 411.43Q424.19 412.61 424.19 414.24L424.19 414.94L415.08 414.94Q415.15 416.94 416.3 418.03Q417.46 419.12 419.22 419.12Q420.71 419.12 421.54 418.44Q422.36 417.76 422.8 416.77L423.99 417.29Q423.66 418.02 423.08 418.71Q422.5 419.41 421.57 419.86Q420.65 420.31 419.22 420.31ZM415.1 413.8L422.85 413.8Q422.76 412.06 421.73 411.12Q420.69 410.19 419.06 410.19Q417.46 410.19 416.4 411.12Q415.35 412.06 415.1 413.8ZM430.72 420.31Q429.6 420.31 428.69 419.92Q427.78 419.54 427.25 418.79Q426.72 418.04 426.72 416.99Q426.72 415.91 427.25 415.2Q427.78 414.5 428.68 414.15Q429.58 413.8 430.68 413.8L434.6 413.8L434.6 412.94Q434.6 411.64 433.85 410.91Q433.1 410.19 431.67 410.19Q430.26 410.19 429.44 410.88Q428.61 411.57 428.33 412.74L427.05 412.37Q427.31 411.42 427.89 410.66Q428.46 409.9 429.4 409.45Q430.35 409 431.67 409Q433.69 409 434.8 410.06Q435.92 411.11 435.92 413L435.92 418.2Q435.92 418.86 436.53 418.86L437.57 418.86L437.57 420L436.16 420Q435.48 420 435.08 419.59Q434.68 419.19 434.68 418.48L434.68 418.33L434.46 418.33Q434.18 418.81 433.73 419.27Q433.28 419.74 432.55 420.02Q431.82 420.31 430.72 420.31ZM430.81 419.12Q432.51 419.12 433.55 418.1Q434.6 417.07 434.6 415.2L434.6 414.94L430.7 414.94Q429.56 414.94 428.8 415.44Q428.04 415.93 428.04 416.96Q428.04 418 428.82 418.56Q429.6 419.12 430.81 419.12ZM440.07 420L440.07 409.31L441.35 409.31L441.35 410.72L441.61 410.72Q441.94 410.12 442.67 409.61Q443.4 409.09 444.74 409.09Q446.04 409.09 446.84 409.68Q447.64 410.28 447.99 411.11L448.26 411.11Q448.63 410.28 449.42 409.68Q450.22 409.09 451.65 409.09Q452.75 409.09 453.56 409.54Q454.37 409.99 454.84 410.79Q455.3 411.6 455.3 412.67L455.3 420L453.98 420L453.98 412.81Q453.98 411.66 453.28 410.97Q452.59 410.28 451.34 410.28Q450.06 410.28 449.2 411.1Q448.35 411.93 448.35 413.51L448.35 420L447.03 420L447.03 412.81Q447.03 411.66 446.33 410.97Q445.64 410.28 444.39 410.28Q443.11 410.28 442.25 411.1Q441.39 411.93 441.39 413.51L441.39 420ZM463.28 420.31Q461.35 420.31 459.97 419.38Q458.6 418.46 458.29 416.33L459.59 416.08Q459.76 417.25 460.3 417.92Q460.84 418.59 461.62 418.88Q462.4 419.16 463.28 419.16Q464.6 419.16 465.41 418.63Q466.21 418.09 466.21 417.14Q466.21 416.17 465.45 415.8Q464.69 415.42 463.44 415.2L462.43 415.03Q461.41 414.85 460.6 414.49Q459.79 414.13 459.31 413.51Q458.84 412.89 458.84 411.97Q458.84 410.58 459.93 409.79Q461.02 409 462.82 409Q464.65 409 465.76 409.83Q466.87 410.65 467.16 412.21L465.92 412.48Q465.7 411.2 464.88 410.67Q464.05 410.14 462.82 410.14Q461.61 410.14 460.89 410.61Q460.16 411.07 460.16 411.97Q460.16 412.85 460.82 413.26Q461.48 413.66 462.62 413.86L463.64 414.04Q464.74 414.21 465.62 414.56Q466.5 414.9 467.01 415.51Q467.53 416.13 467.53 417.14Q467.53 418.66 466.39 419.48Q465.24 420.31 463.28 420.31Z"/>
</svg>
